<svg xmlns="http://www.w3.org/2000/svg" xmlns:xlink="http://www.w3.org/1999/xlink" width="256" height="256" viewBox="0 0 256 256"><defs><radialGradient id="a" cx="0.5" cy="0.5" r="0.5" gradientUnits="objectBoundingBox"><stop offset="0" stop-color="#3f51b5"/><stop offset="1" stop-color="#3f51b5"/></radialGradient><clipPath id="b"><path d="M128,0A128,128,0,1,1,0,128,128,128,0,0,1,128,0Z" transform="translate(158 189)" fill="#3f76b5"/></clipPath></defs><g transform="translate(-158 -189)"><path d="M128,0A128,128,0,1,1,0,128,128,128,0,0,1,128,0Z" transform="translate(158 189)" fill="url(#a)"/><g clip-path="url(#b)"><path d="M240.453,388l10.071-137.221,80.3-4.9L780.466,695.521,687,795.371Z" fill="rgba(28,0,106,0.42)"/></g><path d="M96.387-60.254H39.16V0H14.453V-142.187h90.332v19.922H39.16V-79.98H96.387Z" transform="translate(226 388)" fill="#fff"/></g></svg>